<?xml version="1.0" encoding="UTF-8"?>
<svg version="1.1" xmlns="http://www.w3.org/2000/svg" width="32" height="32">
<path d="M0 0 C-1.33332095 3.99996286 -3.4957827 4.83782337 -7 7 C-6.34 7.33 -5.68 7.66 -5 8 C-4.071875 7.34 -3.14375 6.68 -2.1875 6 C1 4 1 4 4 4 C2.60667426 7.36720387 1.0210714 8.9859524 -2 11 C-1.67 12.32 -1.34 13.64 -1 15 C-1.66 15 -2.32 15 -3 15 C-3 15.66 -3 16.32 -3 17 C-6.63570184 20.40114043 -10.83669687 24 -16 24 C-17.299375 23.4740625 -17.299375 23.4740625 -18.625 22.9375 C-19.800625 22.4734375 -19.800625 22.4734375 -21 22 C-21.99 22.66 -22.98 23.32 -24 24 C-23.65555119 26.47266765 -23.65555119 26.47266765 -23 29 C-22.34 29.33 -21.68 29.66 -21 30 C-21 30.66 -21 31.32 -21 32 C-25.75 31.25 -25.75 31.25 -28 29 C-28.375 26.125 -28.375 26.125 -28 23 C-26 20.625 -26 20.625 -24 19 C-24.66 18.34 -25.32 17.68 -26 17 C-26.38671875 14.609375 -26.38671875 14.609375 -26 12 C-24.20703125 10.015625 -24.20703125 10.015625 -21.8125 8.25 C-21.03519531 7.65703125 -20.25789063 7.0640625 -19.45703125 6.453125 C-16.89370766 4.93713712 -14.92981028 4.4030947 -12 4 C-9.38039341 3.52370789 -8.12749538 3.09960577 -6 1.4375 C-4 0 -4 0 0 0 Z M-15 6 C-17.93200474 8.85276137 -20.64315404 11.65079784 -23 15 C-20.51003219 17.92937389 -18.92305569 19.77926929 -15.125 20.6875 C-10.68061263 19.70973478 -8.17024832 17.15148946 -5 14 C-8.11016455 10.71211176 -11.01618925 8.16264012 -15 6 Z " fill="#959494" transform="translate(28,0)"/>
<path d="M0 0 C1.65 0 3.3 0 5 0 C5.33 1.32 5.66 2.64 6 4 C1.25 5.125 1.25 5.125 -1 4 C-0.67 2.68 -0.34 1.36 0 0 Z " fill="#23A2DD" transform="translate(12,11)"/>
</svg>
